# xmcd
#
# Track frame offsets:
#	150
#	13468
#	25175
#	36497
#	47819
#	60036
#	77045
#	93901
#	106238
#	117734
#	130906
#	141197
#	155733
#
# Disc length: 2285 seconds
#
# Revision: 1
# Processed by: cddbd v1.5.1PL0 Copyright (c) Steve Scherf et al.
# Submitted via: audiograbber 1.82.02
#
DISCID=b008eb0d
DTITLE=The Rizdales - Bar and Lounge
DYEAR=2004
DGENRE=Country
TTITLE0=Sing Right Out Loud
TTITLE1=I Could Tell You Lies
TTITLE2=You Stood There So Calmly
TTITLE3=Man I'm On Fire
TTITLE4=Sundays I Can't Take
TTITLE5=A Little Voodoo
TTITLE6=Worst Thing I Could Do
TTITLE7=You'd Almost Think I'm In Love
TTITLE8=Before You Break His Heart
TTITLE9=Wedding Ring
TTITLE10=Falling In Love Today
TTITLE11=Sadder Than You Know
TTITLE12=If You See My Baby
EXTD=
EXTT0=
EXTT1=
EXTT2=
EXTT3=
EXTT4=
EXTT5=
EXTT6=
EXTT7=
EXTT8=
EXTT9=
EXTT10=
EXTT11=
EXTT12=
PLAYORDER=
